<svg width="609" height="609" viewBox="0 0 609 609" fill="none" xmlns="http://www.w3.org/2000/svg">
    <path d="M152.25 609C68.1646 609 0 540.835 0 456.75C0 372.665 68.1646 304.5 152.25 304.5V609Z" fill="#B21B1E" />
    <circle cx="152.25" cy="456.75" r="76.125" fill="#7F1C1D" />
    <path fill-rule="evenodd" clip-rule="evenodd" d="M304.5 380.625H228.375V304.5H304.5V380.625Z" fill="#7F1C1D" />
    <path fill-rule="evenodd" clip-rule="evenodd"
        d="M152.249 152.249H190.312C211.096 152.249 228.374 134.971 228.374 114.188C228.374 93.4035 211.096 76.1244 190.312 76.1244H152.249H76.125V0H190.312C253.115 0 304.5 51.3847 304.5 114.188C304.5 176.99 253.115 228.375 190.312 228.375H152.249V152.249Z"
        fill="#B21B1E" />
    <path fill-rule="evenodd" clip-rule="evenodd"
        d="M38.0625 190.312C38.0625 211.334 55.1037 228.375 76.125 228.375C97.1463 228.375 114.188 211.334 114.188 190.312C114.188 169.291 97.1463 152.25 76.125 152.25C55.1037 152.25 38.0625 169.291 38.0625 190.312Z"
        fill="#7F1C1D" />
    <path d="M456.75 609L609 609C609 524.915 540.835 456.75 456.75 456.75L456.75 609Z" fill="#7F1C1D" />
    <path d="M456.75 456.75C372.665 456.75 304.5 524.915 304.5 609H456.75V456.75Z" fill="#B21B1E" />
    <circle cx="456.75" cy="380.625" r="76.125" fill="#7F1C1D" />
</svg>