<svg xmlns="http://www.w3.org/2000/svg" width="80" height="80" viewBox="0 0 80 80" fill="none">
    <path
        d="M0.687502 36.1262C0.714149 35.8524 0.514638 35.6087 0.241383 35.5805C0.494543 33.2772 0.943258 31.0327 1.57057 28.8641C1.83395 28.9421 2.11129 28.7929 2.19105 28.5297C2.94782 26.0318 3.94539 23.6386 5.1568 21.3769C5.28669 21.1344 5.19623 20.8327 4.95488 20.7015C6.06308 18.6933 7.33887 16.7906 8.7634 15.0122C8.97671 15.1853 9.29008 15.1539 9.46473 14.9413C11.1072 12.9422 12.9422 11.1072 14.9413 9.46472C15.1539 9.29008 15.1853 8.97671 15.0122 8.76339C16.7906 7.33887 18.6933 6.06308 20.7015 4.95487C20.8327 5.19623 21.1344 5.28669 21.3769 5.1568C23.6386 3.94539 26.0318 2.94782 28.5297 2.19105C28.7929 2.11128 28.9421 1.83395 28.8641 1.57057C31.0327 0.943257 33.2772 0.494543 35.5805 0.241382C35.6087 0.514638 35.8524 0.714149 36.1262 0.687502C37.4006 0.563481 38.6928 0.5 40 0.5C41.3072 0.5 42.5994 0.563481 43.8738 0.687502C44.1476 0.714149 44.3913 0.514638 44.4195 0.241383C46.7228 0.494543 48.9673 0.943257 51.1359 1.57057C51.0579 1.83395 51.2071 2.11129 51.4703 2.19105C53.9682 2.94782 56.3614 3.94539 58.6231 5.1568C58.8657 5.28669 59.1673 5.19623 59.2985 4.95488C61.3067 6.06308 63.2094 7.33887 64.9878 8.7634C64.8147 8.97671 64.8461 9.29008 65.0587 9.46473C67.0578 11.1072 68.8928 12.9422 70.5353 14.9413C70.7099 15.1539 71.0233 15.1853 71.2366 15.0122C72.6611 16.7906 73.9369 18.6933 75.0451 20.7015C74.8038 20.8327 74.7133 21.1344 74.8432 21.3769C76.0546 23.6386 77.0522 26.0318 77.809 28.5297C77.8887 28.7929 78.166 28.9421 78.4294 28.8641C79.0567 31.0327 79.5055 33.2772 79.7586 35.5805C79.4854 35.6087 79.2859 35.8524 79.3125 36.1262C79.4365 37.4006 79.5 38.6928 79.5 40C79.5 41.3072 79.4365 42.5994 79.3125 43.8738C79.2859 44.1476 79.4854 44.3913 79.7586 44.4195C79.5055 46.7228 79.0567 48.9673 78.4294 51.1359C78.166 51.0579 77.8887 51.2071 77.809 51.4703C77.0522 53.9682 76.0546 56.3614 74.8432 58.6231C74.7133 58.8656 74.8038 59.1673 75.0451 59.2985C73.9369 61.3067 72.6611 63.2094 71.2366 64.9878C71.0233 64.8147 70.7099 64.8461 70.5353 65.0587C68.8928 67.0578 67.0578 68.8928 65.0587 70.5353C64.8461 70.7099 64.8147 71.0233 64.9878 71.2366C63.2094 72.6611 61.3067 73.9369 59.2985 75.0451C59.1673 74.8038 58.8656 74.7133 58.6231 74.8432C56.3614 76.0546 53.9682 77.0522 51.4703 77.809C51.2071 77.8887 51.0579 78.166 51.1359 78.4294C48.9673 79.0567 46.7228 79.5055 44.4195 79.7586C44.3913 79.4854 44.1476 79.2859 43.8738 79.3125C42.5994 79.4365 41.3072 79.5 40 79.5C38.6928 79.5 37.4006 79.4365 36.1262 79.3125C35.8524 79.2859 35.6087 79.4854 35.5805 79.7586C33.2772 79.5055 31.0327 79.0567 28.8641 78.4294C28.9421 78.166 28.7929 77.8887 28.5297 77.809C26.0318 77.0522 23.6386 76.0546 21.3769 74.8432C21.1344 74.7133 20.8327 74.8038 20.7015 75.0451C18.6933 73.9369 16.7906 72.6611 15.0122 71.2366C15.1853 71.0233 15.1539 70.7099 14.9413 70.5353C12.9422 68.8928 11.1072 67.0578 9.46472 65.0587C9.29008 64.8461 8.97671 64.8147 8.76339 64.9878C7.33886 63.2094 6.06308 61.3067 4.95487 59.2985C5.19623 59.1673 5.28669 58.8656 5.1568 58.6231C3.94539 56.3614 2.94782 53.9682 2.19105 51.4703C2.11128 51.2071 1.83395 51.0579 1.57057 51.1359C0.943256 48.9673 0.494543 46.7228 0.241382 44.4195C0.514638 44.3913 0.714149 44.1476 0.687502 43.8738C0.563481 42.5994 0.5 41.3072 0.5 40C0.5 38.6928 0.563481 37.4006 0.687502 36.1262Z"
        stroke="#E4E4E4" stroke-linecap="round" stroke-dasharray="8 8" />
    <circle cx="45" cy="40" r="20" fill="#92DFE6" />
    <circle cx="35" cy="40" r="20" fill="url(#paint0_linear_11086_15118)" />
    <defs>
        <linearGradient id="paint0_linear_11086_15118" x1="25" y1="60" x2="45" y2="20" gradientUnits="userSpaceOnUse">
            <stop stop-color="#9757F0" />
            <stop offset="1" stop-color="#EC7AD5" />
        </linearGradient>
    </defs>
</svg>