<svg xmlns="http://www.w3.org/2000/svg" width="32" height="32" viewBox="0 0 32 32" fill="none">
    <path
        d="M0.795039 12.9744C0.84812 12.7061 0.675799 12.4455 0.409276 12.3885C0.81213 10.6424 1.50078 9.00553 2.42331 7.52992C2.65211 7.67808 2.95826 7.61561 3.11044 7.38831C4.24221 5.6978 5.6978 4.24221 7.38831 3.11044C7.61561 2.95826 7.67808 2.6521 7.52993 2.42331C9.00554 1.50078 10.6424 0.81213 12.3885 0.409275C12.4455 0.675798 12.7061 0.84812 12.9744 0.795039C13.9526 0.601533 14.9642 0.5 16 0.5C17.0358 0.5 18.0474 0.601533 19.0256 0.795039C19.2939 0.84812 19.5545 0.675799 19.6115 0.409276C21.3576 0.812131 22.9945 1.50078 24.4701 2.42331C24.3219 2.65211 24.3844 2.95826 24.6117 3.11044C26.3022 4.24221 27.7578 5.6978 28.8896 7.38831C29.0417 7.61561 29.3479 7.67808 29.5767 7.52993C30.4992 9.00554 31.1879 10.6424 31.5907 12.3885C31.3242 12.4455 31.1519 12.7061 31.205 12.9744C31.3985 13.9526 31.5 14.9642 31.5 16C31.5 17.0358 31.3985 18.0474 31.205 19.0256C31.1519 19.2939 31.3242 19.5545 31.5907 19.6115C31.1879 21.3576 30.4992 22.9945 29.5767 24.4701C29.3479 24.3219 29.0417 24.3844 28.8896 24.6117C27.7578 26.3022 26.3022 27.7578 24.6117 28.8896C24.3844 29.0417 24.3219 29.3479 24.4701 29.5767C22.9945 30.4992 21.3576 31.1879 19.6115 31.5907C19.5545 31.3242 19.2939 31.1519 19.0256 31.205C18.0474 31.3985 17.0358 31.5 16 31.5C14.9642 31.5 13.9526 31.3985 12.9744 31.205C12.7061 31.1519 12.4455 31.3242 12.3885 31.5907C10.6424 31.1879 9.00553 30.4992 7.52992 29.5767C7.67808 29.3479 7.61561 29.0417 7.38831 28.8896C5.6978 27.7578 4.24221 26.3022 3.11044 24.6117C2.95826 24.3844 2.6521 24.3219 2.42331 24.4701C1.50077 22.9945 0.81213 21.3576 0.409275 19.6115C0.675798 19.5545 0.84812 19.2939 0.795039 19.0256C0.601533 18.0474 0.5 17.0358 0.5 16C0.5 14.9642 0.601533 13.9526 0.795039 12.9744Z"
        stroke="#E4E4E4" stroke-linecap="round" stroke-dasharray="8 8" />
    <circle cx="18" cy="16" r="8" fill="#92DFE6" />
    <circle cx="14" cy="16" r="8" fill="url(#paint0_linear_11064_47807)" />
    <defs>
        <linearGradient id="paint0_linear_11064_47807" x1="10" y1="24" x2="18" y2="8" gradientUnits="userSpaceOnUse">
            <stop stop-color="#9757F0" />
            <stop offset="1" stop-color="#EC7AD5" />
        </linearGradient>
    </defs>
</svg>