<svg width="104" height="104" viewBox="0 0 104 104" fill="none" xmlns="http://www.w3.org/2000/svg">
<circle cx="52" cy="52" r="51" stroke="#039855" stroke-width="2"/>
<path d="M12.6875 48.1262C12.7141 47.8524 12.5146 47.6087 12.2414 47.5805C12.4945 45.2772 12.9433 43.0327 13.5706 40.8641C13.834 40.9421 14.1113 40.7929 14.1911 40.5297C14.9478 38.0318 15.9454 35.6386 17.1568 33.3769C17.2867 33.1344 17.1962 32.8327 16.9549 32.7015C18.0631 30.6933 19.3389 28.7906 20.7634 27.0122C20.9767 27.1853 21.2901 27.1539 21.4647 26.9413C23.1072 24.9422 24.9422 23.1072 26.9413 21.4647C27.1539 21.2901 27.1853 20.9767 27.0122 20.7634C28.7906 19.3389 30.6933 18.0631 32.7015 16.9549C32.8327 17.1962 33.1344 17.2867 33.3769 17.1568C35.6386 15.9454 38.0318 14.9478 40.5297 14.191C40.7929 14.1113 40.9421 13.834 40.8641 13.5706C43.0327 12.9433 45.2772 12.4945 47.5805 12.2414C47.6087 12.5146 47.8524 12.7141 48.1262 12.6875C49.4006 12.5635 50.6928 12.5 52 12.5C53.3072 12.5 54.5994 12.5635 55.8738 12.6875C56.1476 12.7141 56.3913 12.5146 56.4195 12.2414C58.7228 12.4945 60.9673 12.9433 63.1359 13.5706C63.0579 13.834 63.2071 14.1113 63.4703 14.1911C65.9682 14.9478 68.3614 15.9454 70.6231 17.1568C70.8657 17.2867 71.1673 17.1962 71.2985 16.9549C73.3067 18.0631 75.2094 19.3389 76.9878 20.7634C76.8147 20.9767 76.8461 21.2901 77.0587 21.4647C79.0578 23.1072 80.8928 24.9422 82.5353 26.9413C82.7099 27.1539 83.0233 27.1853 83.2366 27.0122C84.6611 28.7906 85.9369 30.6933 87.0451 32.7015C86.8038 32.8327 86.7133 33.1344 86.8432 33.3769C88.0546 35.6386 89.0522 38.0318 89.809 40.5297C89.8887 40.7929 90.166 40.9421 90.4294 40.8641C91.0567 43.0327 91.5055 45.2772 91.7586 47.5805C91.4854 47.6087 91.2859 47.8524 91.3125 48.1262C91.4365 49.4006 91.5 50.6928 91.5 52C91.5 53.3072 91.4365 54.5994 91.3125 55.8738C91.2859 56.1476 91.4854 56.3913 91.7586 56.4195C91.5055 58.7228 91.0567 60.9673 90.4294 63.1359C90.166 63.0579 89.8887 63.2071 89.809 63.4703C89.0522 65.9682 88.0546 68.3614 86.8432 70.6231C86.7133 70.8656 86.8038 71.1673 87.0451 71.2985C85.9369 73.3067 84.6611 75.2094 83.2366 76.9878C83.0233 76.8147 82.7099 76.8461 82.5353 77.0587C80.8928 79.0578 79.0578 80.8928 77.0587 82.5353C76.8461 82.7099 76.8147 83.0233 76.9878 83.2366C75.2094 84.6611 73.3067 85.9369 71.2985 87.0451C71.1673 86.8038 70.8656 86.7133 70.6231 86.8432C68.3614 88.0546 65.9682 89.0522 63.4703 89.809C63.2071 89.8887 63.0579 90.166 63.1359 90.4294C60.9673 91.0567 58.7228 91.5055 56.4195 91.7586C56.3913 91.4854 56.1476 91.2859 55.8738 91.3125C54.5994 91.4365 53.3072 91.5 52 91.5C50.6928 91.5 49.4006 91.4365 48.1262 91.3125C47.8524 91.2859 47.6087 91.4854 47.5805 91.7586C45.2772 91.5055 43.0327 91.0567 40.8641 90.4294C40.9421 90.166 40.7929 89.8887 40.5297 89.809C38.0318 89.0522 35.6386 88.0546 33.3769 86.8432C33.1344 86.7133 32.8327 86.8038 32.7015 87.0451C30.6933 85.9369 28.7906 84.6611 27.0122 83.2366C27.1853 83.0233 27.1539 82.7099 26.9413 82.5353C24.9422 80.8928 23.1072 79.0578 21.4647 77.0587C21.2901 76.8461 20.9767 76.8147 20.7634 76.9878C19.3389 75.2094 18.0631 73.3067 16.9549 71.2985C17.1962 71.1673 17.2867 70.8656 17.1568 70.6231C15.9454 68.3614 14.9478 65.9682 14.191 63.4703C14.1113 63.2071 13.834 63.0579 13.5706 63.1359C12.9433 60.9673 12.4945 58.7228 12.2414 56.4195C12.5146 56.3913 12.7141 56.1476 12.6875 55.8738C12.5635 54.5994 12.5 53.3072 12.5 52C12.5 50.6928 12.5635 49.4006 12.6875 48.1262Z" stroke="#E4E4E4" stroke-linecap="round" stroke-dasharray="8 8"/>
<circle cx="57" cy="52" r="20" fill="#92DFE6"/>
<circle cx="47" cy="52" r="20" fill="url(#paint0_linear_11086_14881)"/>
<defs>
<linearGradient id="paint0_linear_11086_14881" x1="37" y1="72" x2="57" y2="32" gradientUnits="userSpaceOnUse">
<stop stop-color="#9757F0"/>
<stop offset="1" stop-color="#EC7AD5"/>
</linearGradient>
</defs>
</svg>
