<svg width="99" height="34" viewBox="0 0 99 34" fill="none" xmlns="http://www.w3.org/2000/svg">
<mask id="mask0_11119_15648" style="mask-type:luminance" maskUnits="userSpaceOnUse" x="7" y="7" width="20" height="20">
<path d="M17.0488 26.2207C16.3707 26.2207 15.8211 25.6719 15.8211 24.9966C15.8211 24.32 16.3707 23.7712 17.0488 23.7712C20.793 23.7712 23.8393 20.7338 23.8393 17.001C23.8393 13.2669 20.793 10.2296 17.0488 10.2296C13.3045 10.2296 10.2582 13.2669 10.2582 17.001C10.2582 17.683 10.3593 18.3556 10.5586 18.9999C10.7584 19.6456 10.3953 20.3303 9.74735 20.5307C9.09847 20.7298 8.41181 20.3666 8.21216 19.7209C7.94046 18.8426 7.80273 17.9279 7.80273 17.001C7.80273 11.9164 11.9506 7.78139 17.0488 7.78139C22.147 7.78139 26.2948 11.9164 26.2948 17.001C26.2948 22.0844 22.147 26.2207 17.0488 26.2207Z" fill="white"/>
</mask>
<g mask="url(#mask0_11119_15648)">
<path d="M17.0488 26.2207C16.3707 26.2207 15.8211 25.6719 15.8211 24.9966C15.8211 24.32 16.3707 23.7712 17.0488 23.7712C20.793 23.7712 23.8393 20.7338 23.8393 17.001C23.8393 13.2669 20.793 10.2296 17.0488 10.2296C13.3045 10.2296 10.2582 13.2669 10.2582 17.001C10.2582 17.683 10.3593 18.3556 10.5586 18.9999C10.7584 19.6456 10.3953 20.3303 9.74735 20.5307C9.09847 20.7298 8.41181 20.3666 8.21216 19.7209C7.94046 18.8426 7.80273 17.9279 7.80273 17.001C7.80273 11.9164 11.9506 7.78139 17.0488 7.78139C22.147 7.78139 26.2948 11.9164 26.2948 17.001C26.2948 22.0844 22.147 26.2207 17.0488 26.2207Z" fill="black"/>
</g>
<mask id="mask1_11119_15648" style="mask-type:luminance" maskUnits="userSpaceOnUse" x="25" y="20" width="9" height="11">
<path d="M26.8135 30.6387C26.4496 30.6387 26.0894 30.4773 25.8472 30.1706C25.4285 29.6392 25.521 28.8685 26.0544 28.4515C28.4444 26.5804 30.1655 24.0663 31.0318 21.1809C31.2263 20.5326 31.9104 20.1653 32.5607 20.359C33.2095 20.5527 33.5792 21.2347 33.3836 21.8831C32.3718 25.254 30.3616 28.1918 27.571 30.3764C27.3461 30.5526 27.0789 30.6387 26.8135 30.6387Z" fill="white"/>
</mask>
<g mask="url(#mask1_11119_15648)">
<path d="M26.8135 30.6387C26.4496 30.6387 26.0894 30.4773 25.8472 30.1706C25.4285 29.6392 25.521 28.8685 26.0544 28.4515C28.4444 26.5804 30.1655 24.0663 31.0318 21.1809C31.2263 20.5326 31.9104 20.1653 32.5607 20.359C33.2095 20.5527 33.5792 21.2347 33.3836 21.8831C32.3718 25.254 30.3616 28.1918 27.571 30.3764C27.3461 30.5526 27.0789 30.6387 26.8135 30.6387Z" fill="black"/>
</g>
<mask id="mask2_11119_15648" style="mask-type:luminance" maskUnits="userSpaceOnUse" x="0" y="0" width="33" height="34">
<path d="M17.049 34C7.64803 34 0 26.373 0 17C0 7.62565 7.64803 0 17.049 0C23.26 0 28.9839 3.37095 31.9871 8.79863C32.315 9.39184 32.0991 10.1357 31.5042 10.4626C30.9113 10.7894 30.1641 10.5742 29.8368 9.98236C27.2658 5.33487 22.3658 2.44817 17.049 2.44817C9.00205 2.44817 2.4555 8.97618 2.4555 17C2.4555 25.0238 9.00205 31.5518 17.049 31.5518C17.727 31.5518 18.2767 32.0993 18.2767 32.7759C18.2767 33.4512 17.727 34 17.049 34Z" fill="white"/>
</mask>
<g mask="url(#mask2_11119_15648)">
<path d="M17.049 34C7.64803 34 0 26.373 0 17C0 7.62565 7.64803 0 17.049 0C23.26 0 28.9839 3.37095 31.9872 8.79863C32.315 9.39184 32.0991 10.1357 31.5042 10.4626C30.9113 10.7894 30.1641 10.5742 29.8368 9.98236C27.2658 5.33486 22.3658 2.44817 17.049 2.44817C9.00205 2.44817 2.4555 8.97618 2.4555 17C2.4555 25.0238 9.00205 31.5518 17.049 31.5518C17.727 31.5518 18.2767 32.0993 18.2767 32.7759C18.2767 33.4512 17.727 34 17.049 34Z" fill="black"/>
</g>
<mask id="mask3_11119_15648" style="mask-type:luminance" maskUnits="userSpaceOnUse" x="10" y="21" width="5" height="5">
<path d="M14.1 23.3178C14.1 24.3051 13.2976 25.1055 12.3078 25.1055C11.318 25.1055 10.5156 24.3051 10.5156 23.3178C10.5156 22.3304 11.318 21.5314 12.3078 21.5314C13.2976 21.5314 14.1 22.3304 14.1 23.3178Z" fill="white"/>
</mask>
<g mask="url(#mask3_11119_15648)">
<path d="M14.1 23.3178C14.1 24.3051 13.2976 25.1055 12.3078 25.1055C11.318 25.1055 10.5156 24.3051 10.5156 23.3178C10.5156 22.3304 11.318 21.5314 12.3078 21.5314C13.2976 21.5314 14.1 22.3304 14.1 23.3178Z" fill="#D187F9"/>
</g>
<mask id="mask4_11119_15648" style="mask-type:luminance" maskUnits="userSpaceOnUse" x="20" y="30" width="5" height="4">
<path d="M24.0922 31.9773C24.0922 32.9633 23.2898 33.7637 22.3 33.7637C21.3102 33.7637 20.5078 32.9633 20.5078 31.9773C20.5078 30.99 21.3102 30.1896 22.3 30.1896C23.2898 30.1896 24.0922 30.99 24.0922 31.9773Z" fill="white"/>
</mask>
<g mask="url(#mask4_11119_15648)">
<path d="M24.0922 31.9773C24.0922 32.9633 23.2898 33.7637 22.3 33.7637C21.3102 33.7637 20.5078 32.9633 20.5078 31.9773C20.5078 30.99 21.3102 30.1896 22.3 30.1896C23.2898 30.1896 24.0922 30.99 24.0922 31.9773Z" fill="black"/>
</g>
<mask id="mask5_11119_15648" style="mask-type:luminance" maskUnits="userSpaceOnUse" x="30" y="13" width="4" height="5">
<path d="M34.0002 15.5203C34.0002 16.5063 33.1976 17.3066 32.2087 17.3066C31.2183 17.3066 30.416 16.5063 30.416 15.5203C30.416 14.5329 31.2183 13.7326 32.2087 13.7326C33.1976 13.7326 34.0002 14.5329 34.0002 15.5203Z" fill="white"/>
</mask>
<g mask="url(#mask5_11119_15648)">
<path d="M34.0002 15.5203C34.0002 16.5063 33.1976 17.3066 32.2087 17.3066C31.2183 17.3066 30.416 16.5063 30.416 15.5203C30.416 14.5329 31.2183 13.7326 32.2087 13.7326C33.1976 13.7326 34.0002 14.5329 34.0002 15.5203Z" fill="black"/>
</g>
<circle cx="16.9998" cy="16.9998" r="3.2381" fill="#92DFE6"/>
<mask id="mask6_11119_15648" style="mask-type:luminance" maskUnits="userSpaceOnUse" x="41" y="2" width="14" height="15">
<path d="M55 9.50264C55 13.3649 51.8647 16.5 48.0023 16.5C44.1336 16.5 41 13.3649 41 9.50264C41 5.63512 44.1336 2.5 48.0023 2.5C51.8647 2.5 55 5.63512 55 9.50264Z" fill="white"/>
</mask>
<g mask="url(#mask6_11119_15648)">
<path d="M48.0023 16C51.5886 16 54.5 13.0887 54.5 9.50264C54.5 5.91104 51.5884 3 48.0023 3C44.4099 3 41.5 5.91118 41.5 9.50264C41.5 13.0886 44.4096 16 48.0023 16Z" fill="#D187F9" stroke="#D187F9"/>
</g>
<path d="M81.7497 13.3951C81.4077 13.3951 81.0972 13.3096 80.8182 13.1386C80.5392 12.9676 80.3142 12.7426 80.1432 12.4636C79.9722 12.1846 79.8867 11.8741 79.8867 11.5321V3.16211H81.6552V5.56511H84.7062V7.33361H81.6552V11.4646C81.6552 11.5096 81.6687 11.5501 81.6957 11.5861C81.7317 11.6131 81.7722 11.6266 81.8172 11.6266H84.7062V13.3951H81.7497Z" fill="#92DFE6"/>
<path d="M77.5796 13.395C77.0912 13.395 76.6953 12.9991 76.6953 12.5107V6.44925C76.6953 5.96089 77.0912 5.565 77.5796 5.565C78.0679 5.565 78.4638 5.96089 78.4638 6.44925V12.5107C78.4638 12.9991 78.0679 13.395 77.5796 13.395ZM77.5796 4.782C77.0912 4.782 76.6953 4.37936 76.6953 3.891C76.6953 3.40264 77.0912 3 77.5796 3C78.0679 3 78.4638 3.40264 78.4638 3.891C78.4638 4.37936 78.0679 4.782 77.5796 4.782Z" fill="#92DFE6"/>
<path d="M66.0059 13.3938V3.67383H67.8014V7.62933H70.0829L73.4039 3.67383H75.3479V4.18683L71.7029 8.53383L75.3614 12.8808V13.3938H73.4039L70.0829 9.43833H67.8014V13.3938H66.0059Z" fill="#92DFE6"/>
<path d="M57 16.4995V5.56445H63.0885C63.4305 5.56445 63.741 5.64995 64.02 5.82095C64.308 5.99195 64.533 6.21695 64.695 6.49595C64.866 6.77495 64.9515 7.08545 64.9515 7.42745V11.5315C64.9515 11.8735 64.866 12.184 64.695 12.463C64.533 12.742 64.308 12.967 64.02 13.138C63.741 13.309 63.4305 13.3945 63.0885 13.3945H58.7685V16.4995H57ZM58.9305 11.626H63.021C63.066 11.626 63.102 11.6125 63.129 11.5855C63.165 11.5495 63.183 11.509 63.183 11.464V7.49495C63.183 7.44995 63.165 7.41395 63.129 7.38695C63.102 7.35095 63.066 7.33295 63.021 7.33295H58.9305C58.8855 7.33295 58.845 7.35095 58.809 7.38695C58.782 7.41395 58.7685 7.44995 58.7685 7.49495V11.464C58.7685 11.509 58.782 11.5495 58.809 11.5855C58.845 11.6125 58.8855 11.626 58.9305 11.626Z" fill="#92DFE6"/>
<path d="M41.696 28.5V19.86H48.656C48.96 19.86 49.24 19.936 49.496 20.088C49.752 20.24 49.956 20.444 50.108 20.7C50.26 20.948 50.336 21.224 50.336 21.528V26.832C50.336 27.136 50.26 27.416 50.108 27.672C49.956 27.92 49.752 28.12 49.496 28.272C49.24 28.424 48.96 28.5 48.656 28.5H41.696ZM43.412 26.904H48.584C48.624 26.904 48.66 26.892 48.692 26.868C48.724 26.836 48.74 26.8 48.74 26.76V21.6C48.74 21.56 48.724 21.528 48.692 21.504C48.66 21.472 48.624 21.456 48.584 21.456H43.412C43.372 21.456 43.336 21.472 43.304 21.504C43.28 21.528 43.268 21.56 43.268 21.6V26.76C43.268 26.8 43.28 26.836 43.304 26.868C43.336 26.892 43.372 26.904 43.412 26.904ZM53.2758 28.5C52.9718 28.5 52.6958 28.424 52.4478 28.272C52.1998 28.12 51.9998 27.92 51.8478 27.672C51.6958 27.424 51.6198 27.148 51.6198 26.844V23.196C51.6198 22.892 51.6958 22.616 51.8478 22.368C51.9998 22.12 52.1998 21.92 52.4478 21.768C52.6958 21.616 52.9718 21.54 53.2758 21.54H57.0318C57.3358 21.54 57.6118 21.616 57.8598 21.768C58.1158 21.92 58.3158 22.12 58.4598 22.368C58.6118 22.616 58.6878 22.892 58.6878 23.196V26.844C58.6878 27.148 58.6118 27.424 58.4598 27.672C58.3158 27.92 58.1198 28.12 57.8718 28.272C57.6238 28.424 57.3438 28.5 57.0318 28.5H53.2758ZM53.3358 26.928H56.9718C57.0118 26.928 57.0438 26.916 57.0678 26.892C57.0998 26.86 57.1158 26.824 57.1158 26.784V23.256C57.1158 23.216 57.0998 23.184 57.0678 23.16C57.0438 23.128 57.0118 23.112 56.9718 23.112H53.3358C53.2958 23.112 53.2598 23.128 53.2278 23.16C53.2038 23.184 53.1918 23.216 53.1918 23.256V26.784C53.1918 26.824 53.2038 26.86 53.2278 26.892C53.2598 26.916 53.2958 26.928 53.3358 26.928ZM59.9644 28.5V21.54H68.5924C68.9044 21.54 69.1844 21.616 69.4324 21.768C69.6804 21.92 69.8764 22.12 70.0204 22.368C70.1724 22.616 70.2484 22.892 70.2484 23.196V28.5H68.6884V23.256C68.6884 23.216 68.6724 23.184 68.6404 23.16C68.6084 23.128 68.5724 23.112 68.5324 23.112H66.0484C66.0084 23.112 65.9724 23.128 65.9404 23.16C65.9164 23.184 65.9044 23.216 65.9044 23.256V28.5H64.3204V23.256C64.3204 23.216 64.3044 23.184 64.2724 23.16C64.2484 23.128 64.2164 23.112 64.1764 23.112H61.6804C61.6404 23.112 61.6044 23.128 61.5724 23.16C61.5484 23.184 61.5364 23.216 61.5364 23.256V28.5H59.9644ZM73.0691 28.5C72.7651 28.5 72.4851 28.424 72.2291 28.272C71.9811 28.12 71.7811 27.92 71.6291 27.672C71.4851 27.424 71.4131 27.148 71.4131 26.844V24.228H76.9091V23.256C76.9091 23.216 76.8931 23.184 76.8611 23.16C76.8371 23.128 76.8051 23.112 76.7651 23.112H71.4131V21.54H76.8251C77.1291 21.54 77.4051 21.616 77.6531 21.768C77.9091 21.92 78.1091 22.12 78.2531 22.368C78.4051 22.616 78.4811 22.892 78.4811 23.196V28.5H73.0691ZM73.1291 26.928H76.9091V25.644H72.9851V26.784C72.9851 26.824 72.9971 26.86 73.0211 26.892C73.0531 26.916 73.0891 26.928 73.1291 26.928ZM79.7451 28.5V21.54H81.3171V28.5H79.7451ZM79.7451 20.844V19.26H81.3171V20.844H79.7451ZM82.7105 28.5V21.54H88.1225C88.4265 21.54 88.7025 21.616 88.9505 21.768C89.2065 21.92 89.4065 22.12 89.5505 22.368C89.7025 22.616 89.7785 22.892 89.7785 23.196V28.5H88.2065V23.256C88.2065 23.216 88.1905 23.184 88.1585 23.16C88.1345 23.128 88.1025 23.112 88.0625 23.112H84.4265C84.3865 23.112 84.3505 23.128 84.3185 23.16C84.2945 23.184 84.2825 23.216 84.2825 23.256V28.5H82.7105ZM92.4859 28.5C92.1819 28.5 91.9059 28.424 91.6579 28.272C91.4099 28.12 91.2099 27.92 91.0579 27.672C90.9059 27.424 90.8299 27.148 90.8299 26.844V26.58H92.4019V26.784C92.4019 26.824 92.4139 26.86 92.4379 26.892C92.4699 26.916 92.5059 26.928 92.5459 26.928H96.1819C96.2219 26.928 96.2539 26.916 96.2779 26.892C96.3099 26.86 96.3259 26.824 96.3259 26.784V25.956C96.3259 25.916 96.3099 25.884 96.2779 25.86C96.2539 25.828 96.2219 25.812 96.1819 25.812H92.4859C92.1819 25.812 91.9059 25.736 91.6579 25.584C91.4099 25.432 91.2099 25.232 91.0579 24.984C90.9059 24.736 90.8299 24.46 90.8299 24.156V23.196C90.8299 22.892 90.9059 22.616 91.0579 22.368C91.2099 22.12 91.4099 21.92 91.6579 21.768C91.9059 21.616 92.1819 21.54 92.4859 21.54H96.2419C96.5539 21.54 96.8339 21.616 97.0819 21.768C97.3299 21.92 97.5299 22.12 97.6819 22.368C97.8339 22.616 97.9099 22.892 97.9099 23.196V23.46H96.3259V23.256C96.3259 23.216 96.3099 23.184 96.2779 23.16C96.2539 23.128 96.2219 23.112 96.1819 23.112H92.5459C92.5059 23.112 92.4699 23.128 92.4379 23.16C92.4139 23.184 92.4019 23.216 92.4019 23.256V24.084C92.4019 24.124 92.4139 24.16 92.4379 24.192C92.4699 24.216 92.5059 24.228 92.5459 24.228H96.2419C96.5539 24.228 96.8339 24.304 97.0819 24.456C97.3299 24.608 97.5299 24.808 97.6819 25.056C97.8339 25.304 97.9099 25.58 97.9099 25.884V26.844C97.9099 27.148 97.8339 27.424 97.6819 27.672C97.5299 27.92 97.3299 28.12 97.0819 28.272C96.8339 28.424 96.5539 28.5 96.2419 28.5H92.4859Z" fill="#101828"/>
</svg>
