<svg width="58" height="30" viewBox="0 0 58 30" fill="none" xmlns="http://www.w3.org/2000/svg">
<path d="M2.34 12C2.036 12 1.756 11.924 1.5 11.772C1.252 11.62 1.052 11.42 0.9 11.172C0.748 10.916 0.672 10.636 0.672 10.332V5.028C0.672 4.724 0.748 4.448 0.9 4.2C1.052 3.944 1.252 3.74 1.5 3.588C1.756 3.436 2.036 3.36 2.34 3.36H9.288V4.956H2.676C2.548 4.956 2.444 4.992 2.364 5.064C2.292 5.136 2.256 5.24 2.256 5.376V9.984C2.256 10.112 2.292 10.216 2.364 10.296C2.444 10.368 2.548 10.404 2.676 10.404H9.288V12H2.34ZM12.0532 12C11.7492 12 11.4732 11.924 11.2252 11.772C10.9772 11.62 10.7772 11.42 10.6252 11.172C10.4732 10.924 10.3972 10.648 10.3972 10.344V6.696C10.3972 6.392 10.4732 6.116 10.6252 5.868C10.7772 5.62 10.9772 5.42 11.2252 5.268C11.4732 5.116 11.7492 5.04 12.0532 5.04H15.8092C16.1132 5.04 16.3892 5.116 16.6372 5.268C16.8932 5.42 17.0932 5.62 17.2372 5.868C17.3892 6.116 17.4652 6.392 17.4652 6.696V9.312H11.9692V10.284C11.9692 10.324 11.9812 10.36 12.0052 10.392C12.0372 10.416 12.0732 10.428 12.1132 10.428H17.4652V12H12.0532ZM11.9692 7.896H15.8932V6.756C15.8932 6.716 15.8772 6.684 15.8452 6.66C15.8212 6.628 15.7892 6.612 15.7492 6.612H12.1132C12.0732 6.612 12.0372 6.628 12.0052 6.66C11.9812 6.684 11.9692 6.716 11.9692 6.756V7.896ZM20.0925 12C19.7885 12 19.5125 11.924 19.2645 11.772C19.0165 11.62 18.8165 11.42 18.6645 11.172C18.5125 10.924 18.4365 10.648 18.4365 10.344V2.748H20.0205V10.284C20.0205 10.324 20.0325 10.36 20.0565 10.392C20.0885 10.416 20.1245 10.428 20.1645 10.428H21.4965V12H20.0925ZM22.5967 12V5.04H24.1687V12H22.5967ZM22.5967 4.344V2.76H24.1687V4.344H22.5967ZM26.7839 12C26.4799 12 26.1999 11.924 25.9439 11.772C25.6959 11.62 25.4959 11.42 25.3439 11.172C25.1999 10.924 25.1279 10.648 25.1279 10.344V7.728H30.6239V6.756C30.6239 6.716 30.6079 6.684 30.5759 6.66C30.5519 6.628 30.5199 6.612 30.4799 6.612H25.1279V5.04H30.5399C30.8439 5.04 31.1199 5.116 31.3679 5.268C31.6239 5.42 31.8239 5.62 31.9679 5.868C32.1199 6.116 32.1959 6.392 32.1959 6.696V12H26.7839ZM26.8439 10.428H30.6239V9.144H26.6999V10.284C26.6999 10.324 26.7119 10.36 26.7359 10.392C26.7679 10.416 26.8039 10.428 26.8439 10.428ZM33.4839 12V10.428H35.0559V12H33.4839Z" fill="#A15CED"/>
<path d="M0.696 27V18.36H7.656C7.96 18.36 8.24 18.436 8.496 18.588C8.752 18.74 8.956 18.944 9.108 19.2C9.26 19.448 9.336 19.724 9.336 20.028V25.332C9.336 25.636 9.26 25.916 9.108 26.172C8.956 26.42 8.752 26.62 8.496 26.772C8.24 26.924 7.96 27 7.656 27H0.696ZM2.412 25.404H7.584C7.624 25.404 7.66 25.392 7.692 25.368C7.724 25.336 7.74 25.3 7.74 25.26V20.1C7.74 20.06 7.724 20.028 7.692 20.004C7.66 19.972 7.624 19.956 7.584 19.956H2.412C2.372 19.956 2.336 19.972 2.304 20.004C2.28 20.028 2.268 20.06 2.268 20.1V25.26C2.268 25.3 2.28 25.336 2.304 25.368C2.336 25.392 2.372 25.404 2.412 25.404ZM12.2758 27C11.9718 27 11.6958 26.924 11.4478 26.772C11.1998 26.62 10.9998 26.42 10.8478 26.172C10.6958 25.924 10.6198 25.648 10.6198 25.344V21.696C10.6198 21.392 10.6958 21.116 10.8478 20.868C10.9998 20.62 11.1998 20.42 11.4478 20.268C11.6958 20.116 11.9718 20.04 12.2758 20.04H16.0318C16.3358 20.04 16.6118 20.116 16.8598 20.268C17.1158 20.42 17.3158 20.62 17.4598 20.868C17.6118 21.116 17.6878 21.392 17.6878 21.696V25.344C17.6878 25.648 17.6118 25.924 17.4598 26.172C17.3158 26.42 17.1198 26.62 16.8718 26.772C16.6238 26.924 16.3438 27 16.0318 27H12.2758ZM12.3358 25.428H15.9718C16.0118 25.428 16.0438 25.416 16.0678 25.392C16.0998 25.36 16.1158 25.324 16.1158 25.284V21.756C16.1158 21.716 16.0998 21.684 16.0678 21.66C16.0438 21.628 16.0118 21.612 15.9718 21.612H12.3358C12.2958 21.612 12.2598 21.628 12.2278 21.66C12.2038 21.684 12.1918 21.716 12.1918 21.756V25.284C12.1918 25.324 12.2038 25.36 12.2278 25.392C12.2598 25.416 12.2958 25.428 12.3358 25.428ZM18.9644 27V20.04H27.5924C27.9044 20.04 28.1844 20.116 28.4324 20.268C28.6804 20.42 28.8764 20.62 29.0204 20.868C29.1724 21.116 29.2484 21.392 29.2484 21.696V27H27.6884V21.756C27.6884 21.716 27.6724 21.684 27.6404 21.66C27.6084 21.628 27.5724 21.612 27.5324 21.612H25.0484C25.0084 21.612 24.9724 21.628 24.9404 21.66C24.9164 21.684 24.9044 21.716 24.9044 21.756V27H23.3204V21.756C23.3204 21.716 23.3044 21.684 23.2724 21.66C23.2484 21.628 23.2164 21.612 23.1764 21.612H20.6804C20.6404 21.612 20.6044 21.628 20.5724 21.66C20.5484 21.684 20.5364 21.716 20.5364 21.756V27H18.9644ZM32.0691 27C31.7651 27 31.4851 26.924 31.2291 26.772C30.9811 26.62 30.7811 26.42 30.6291 26.172C30.4851 25.924 30.4131 25.648 30.4131 25.344V22.728H35.9091V21.756C35.9091 21.716 35.8931 21.684 35.8611 21.66C35.8371 21.628 35.8051 21.612 35.7651 21.612H30.4131V20.04H35.8251C36.1291 20.04 36.4051 20.116 36.6531 20.268C36.9091 20.42 37.1091 20.62 37.2531 20.868C37.4051 21.116 37.4811 21.392 37.4811 21.696V27H32.0691ZM32.1291 25.428H35.9091V24.144H31.9851V25.284C31.9851 25.324 31.9971 25.36 32.0211 25.392C32.0531 25.416 32.0891 25.428 32.1291 25.428ZM38.7451 27V20.04H40.3171V27H38.7451ZM38.7451 19.344V17.76H40.3171V19.344H38.7451ZM41.7105 27V20.04H47.1225C47.4265 20.04 47.7025 20.116 47.9505 20.268C48.2065 20.42 48.4065 20.62 48.5505 20.868C48.7025 21.116 48.7785 21.392 48.7785 21.696V27H47.2065V21.756C47.2065 21.716 47.1905 21.684 47.1585 21.66C47.1345 21.628 47.1025 21.612 47.0625 21.612H43.4265C43.3865 21.612 43.3505 21.628 43.3185 21.66C43.2945 21.684 43.2825 21.716 43.2825 21.756V27H41.7105ZM51.4859 27C51.1819 27 50.9059 26.924 50.6579 26.772C50.4099 26.62 50.2099 26.42 50.0579 26.172C49.9059 25.924 49.8299 25.648 49.8299 25.344V25.08H51.4019V25.284C51.4019 25.324 51.4139 25.36 51.4379 25.392C51.4699 25.416 51.5059 25.428 51.5459 25.428H55.1819C55.2219 25.428 55.2539 25.416 55.2779 25.392C55.3099 25.36 55.3259 25.324 55.3259 25.284V24.456C55.3259 24.416 55.3099 24.384 55.2779 24.36C55.2539 24.328 55.2219 24.312 55.1819 24.312H51.4859C51.1819 24.312 50.9059 24.236 50.6579 24.084C50.4099 23.932 50.2099 23.732 50.0579 23.484C49.9059 23.236 49.8299 22.96 49.8299 22.656V21.696C49.8299 21.392 49.9059 21.116 50.0579 20.868C50.2099 20.62 50.4099 20.42 50.6579 20.268C50.9059 20.116 51.1819 20.04 51.4859 20.04H55.2419C55.5539 20.04 55.8339 20.116 56.0819 20.268C56.3299 20.42 56.5299 20.62 56.6819 20.868C56.8339 21.116 56.9099 21.392 56.9099 21.696V21.96H55.3259V21.756C55.3259 21.716 55.3099 21.684 55.2779 21.66C55.2539 21.628 55.2219 21.612 55.1819 21.612H51.5459C51.5059 21.612 51.4699 21.628 51.4379 21.66C51.4139 21.684 51.4019 21.716 51.4019 21.756V22.584C51.4019 22.624 51.4139 22.66 51.4379 22.692C51.4699 22.716 51.5059 22.728 51.5459 22.728H55.2419C55.5539 22.728 55.8339 22.804 56.0819 22.956C56.3299 23.108 56.5299 23.308 56.6819 23.556C56.8339 23.804 56.9099 24.08 56.9099 24.384V25.344C56.9099 25.648 56.8339 25.924 56.6819 26.172C56.5299 26.42 56.3299 26.62 56.0819 26.772C55.8339 26.924 55.5539 27 55.2419 27H51.4859Z" fill="#101828"/>
</svg>
