<svg width="40" height="40" viewBox="0 0 40 40" fill="none" xmlns="http://www.w3.org/2000/svg">
<g clip-path="url(#clip0_11068_48035)">
<path d="M20 40C31.0457 40 40 31.0457 40 20C40 8.95431 31.0457 0 20 0C8.95431 0 0 8.95431 0 20C0 31.0457 8.95431 40 20 40Z" fill="#EB001A"/>
</g>
<path fill-rule="evenodd" clip-rule="evenodd" d="M28.0003 16.5723C28.0003 16.02 27.5525 15.5723 27.0003 15.5723H25.284C24.7317 15.5723 24.284 16.02 24.284 16.5723V18.3818C24.284 18.9341 23.8363 19.3818 23.284 19.3818H21.5678C21.0155 19.3818 20.5678 19.8295 20.5678 20.3818V22.1913C20.5678 22.7435 20.1201 23.1913 19.5678 23.1913H17.8516C17.2993 23.1913 16.8516 23.639 16.8516 24.1913V26.0008C16.8516 26.5531 17.2993 27.0008 17.8516 27.0008H27.0003C27.5525 27.0008 28.0003 26.5531 28.0003 26.0008V16.5723Z" fill="white"/>
<path fill-rule="evenodd" clip-rule="evenodd" d="M10.9997 23.4277C10.9997 23.98 11.4475 24.4277 11.9997 24.4277L13.716 24.4277C14.2683 24.4277 14.716 23.98 14.716 23.4277L14.716 21.6182C14.716 21.0659 15.1637 20.6182 15.716 20.6182L17.4322 20.6182C17.9845 20.6182 18.4322 20.1705 18.4322 19.6182L18.4322 17.8087C18.4322 17.2565 18.8799 16.8087 19.4322 16.8087L21.1484 16.8087C21.7007 16.8087 22.1484 16.361 22.1484 15.8087L22.1484 13.9992C22.1484 13.4469 21.7007 12.9992 21.1484 12.9992L11.9997 12.9992C11.4475 12.9992 10.9997 13.4469 10.9997 13.9992L10.9997 23.4277Z" fill="white"/>
<defs>
<clipPath id="clip0_11068_48035">
<rect width="40" height="40" fill="white"/>
</clipPath>
</defs>
</svg>
